<?xml version="1.0" encoding="UTF-8"?><svg xmlns="http://www.w3.org/2000/svg" xmlns:xlink="http://www.w3.org/1999/xlink" fill-opacity="1" color-rendering="auto" color-interpolation="auto" text-rendering="auto" stroke="black" stroke-linecap="square" width="269" stroke-miterlimit="10" shape-rendering="auto" stroke-opacity="1" fill="black" stroke-dasharray="none" font-weight="normal" stroke-width="1" height="277" font-family="'Dialog'" font-style="normal" stroke-linejoin="miter" font-size="12px" stroke-dashoffset="0" image-rendering="auto">
  <!--Generated by ySVG 2.5-->
  <defs id="genericDefs"/>
  <g>
    <defs id="defs1">
      <clipPath clipPathUnits="userSpaceOnUse" id="clipPath1">
        <path d="M0 0 L269 0 L269 277 L0 277 L0 0 Z"/>
      </clipPath>
      <clipPath clipPathUnits="userSpaceOnUse" id="clipPath2">
        <path d="M153 194 L422 194 L422 471 L153 471 L153 194 Z"/>
      </clipPath>
    </defs>
    <g fill="white" text-rendering="geometricPrecision" shape-rendering="geometricPrecision" transform="translate(-153,-194)" stroke="white">
      <rect x="153" width="269" height="277" y="194" clip-path="url(#clipPath2)" stroke="none"/>
    </g>
    <g fill="white" text-rendering="geometricPrecision" shape-rendering="geometricPrecision" transform="matrix(1,0,0,1,-153,-194)" stroke="white">
      <path d="M168.896 219.368 Q168.896 209.368 178.896 209.368 L396.416 209.368 Q406.416 209.368 406.416 219.368 L406.416 241.368 Q406.416 251.368 396.416 251.368 L178.896 251.368 Q168.896 251.368 168.896 241.368 Z" stroke="none" clip-path="url(#clipPath2)"/>
    </g>
    <g text-rendering="geometricPrecision" stroke-miterlimit="1.45" shape-rendering="geometricPrecision" transform="matrix(1,0,0,1,-153,-194)" stroke-linecap="butt">
      <path fill="none" d="M168.896 219.368 Q168.896 209.368 178.896 209.368 L396.416 209.368 Q406.416 209.368 406.416 219.368 L406.416 241.368 Q406.416 251.368 396.416 251.368 L178.896 251.368 Q168.896 251.368 168.896 241.368 Z" clip-path="url(#clipPath2)"/>
      <text x="273.9802" xml:space="preserve" y="234.5223" clip-path="url(#clipPath2)" font-family="sans-serif" stroke="none">User</text>
    </g>
    <g fill="white" text-rendering="geometricPrecision" shape-rendering="geometricPrecision" transform="matrix(1,0,0,1,-153,-194)" stroke="white">
      <path d="M168.896 291.368 Q168.896 281.368 178.896 281.368 L396.416 281.368 Q406.416 281.368 406.416 291.368 L406.416 313.368 Q406.416 323.368 396.416 323.368 L178.896 323.368 Q168.896 323.368 168.896 313.368 Z" stroke="none" clip-path="url(#clipPath2)"/>
    </g>
    <g text-rendering="geometricPrecision" stroke-miterlimit="1.45" shape-rendering="geometricPrecision" transform="matrix(1,0,0,1,-153,-194)" stroke-linecap="butt">
      <path fill="none" d="M168.896 291.368 Q168.896 281.368 178.896 281.368 L396.416 281.368 Q406.416 281.368 406.416 291.368 L406.416 313.368 Q406.416 323.368 396.416 323.368 L178.896 323.368 Q168.896 323.368 168.896 313.368 Z" clip-path="url(#clipPath2)"/>
      <text x="247.9236" xml:space="preserve" y="306.5223" clip-path="url(#clipPath2)" font-family="sans-serif" stroke="none">Shell process</text>
    </g>
    <g fill="white" text-rendering="geometricPrecision" shape-rendering="geometricPrecision" transform="matrix(1,0,0,1,-153,-194)" stroke="white">
      <path d="M168.896 423.368 Q168.896 413.368 178.896 413.368 L396.416 413.368 Q406.416 413.368 406.416 423.368 L406.416 445.368 Q406.416 455.368 396.416 455.368 L178.896 455.368 Q168.896 455.368 168.896 445.368 Z" stroke="none" clip-path="url(#clipPath2)"/>
    </g>
    <g text-rendering="geometricPrecision" stroke-miterlimit="1.45" shape-rendering="geometricPrecision" transform="matrix(1,0,0,1,-153,-194)" stroke-linecap="butt">
      <path fill="none" d="M168.896 423.368 Q168.896 413.368 178.896 413.368 L396.416 413.368 Q406.416 413.368 406.416 423.368 L406.416 445.368 Q406.416 455.368 396.416 455.368 L178.896 455.368 Q168.896 455.368 168.896 445.368 Z" clip-path="url(#clipPath2)"/>
      <text x="279.1248" xml:space="preserve" y="438.5223" clip-path="url(#clipPath2)" font-family="sans-serif" stroke="none">OS</text>
    </g>
    <g fill="white" text-rendering="geometricPrecision" shape-rendering="geometricPrecision" transform="matrix(1,0,0,1,-153,-194)" stroke="white">
      <path d="M230.656 357.368 Q230.656 347.368 240.656 347.368 L334.656 347.368 Q344.656 347.368 344.656 357.368 L344.656 379.368 Q344.656 389.368 334.656 389.368 L240.656 389.368 Q230.656 389.368 230.656 379.368 Z" stroke="none" clip-path="url(#clipPath2)"/>
    </g>
    <g text-rendering="geometricPrecision" stroke-miterlimit="1.45" shape-rendering="geometricPrecision" transform="matrix(1,0,0,1,-153,-194)" stroke-linecap="butt">
      <path fill="none" d="M230.656 357.368 Q230.656 347.368 240.656 347.368 L334.656 347.368 Q344.656 347.368 344.656 357.368 L344.656 379.368 Q344.656 389.368 334.656 389.368 L240.656 389.368 Q230.656 389.368 230.656 379.368 Z" clip-path="url(#clipPath2)"/>
      <text x="244.238" xml:space="preserve" y="365.5379" clip-path="url(#clipPath2)" font-family="sans-serif" stroke="none">Our program's</text>
      <text x="264.4675" xml:space="preserve" y="379.5067" clip-path="url(#clipPath2)" font-family="sans-serif" stroke="none">process</text>
    </g>
    <g text-rendering="geometricPrecision" stroke-miterlimit="1.45" shape-rendering="geometricPrecision" transform="matrix(1,0,0,1,-153,-194)" stroke-linecap="butt">
      <path fill="none" d="M206.728 251.3522 L206.728 273.3314" clip-path="url(#clipPath2)"/>
    </g>
    <g text-rendering="geometricPrecision" stroke-miterlimit="1.45" shape-rendering="geometricPrecision" transform="matrix(1,0,0,1,-153,-194)" stroke-linecap="butt">
      <path d="M206.728 281.3314 L211.728 269.3314 L206.728 272.3314 L201.728 269.3314 Z" stroke="none" clip-path="url(#clipPath2)"/>
      <text x="212.8466" xml:space="preserve" y="270.0019" clip-path="url(#clipPath2)" font-family="sans-serif" stroke="none">1</text>
      <path fill="none" d="M367.368 281.3962 L367.368 259.3936" clip-path="url(#clipPath2)"/>
      <path d="M367.368 251.3936 L362.368 263.3936 L367.368 260.3936 L372.368 263.3936 Z" clip-path="url(#clipPath2)" stroke="none"/>
      <text x="374.6066" xml:space="preserve" y="271.5463" clip-path="url(#clipPath2)" font-family="sans-serif" stroke="none">6</text>
      <path fill="none" d="M208.008 323.3617 L208.008 405.3917" clip-path="url(#clipPath2)"/>
      <path d="M208.008 413.3917 L213.008 401.3917 L208.008 404.3917 L203.008 401.3917 Z" clip-path="url(#clipPath2)" stroke="none"/>
      <text x="211.2799" xml:space="preserve" y="373.0138" clip-path="url(#clipPath2)" font-family="sans-serif" stroke="none">2</text>
      <path fill="none" d="M365.448 413.3447 L365.448 331.3884" clip-path="url(#clipPath2)"/>
      <path d="M365.448 323.3884 L360.448 335.3884 L365.448 332.3884 L370.448 335.3884 Z" clip-path="url(#clipPath2)" stroke="none"/>
      <text x="371.1506" xml:space="preserve" y="375.0823" clip-path="url(#clipPath2)" font-family="sans-serif" stroke="none">5</text>
      <path fill="none" d="M251.5245 413.347 L251.5245 397.3385" clip-path="url(#clipPath2)"/>
      <path d="M251.5245 389.3385 L246.5245 401.3385 L251.5245 398.3385 L256.5245 401.3385 Z" clip-path="url(#clipPath2)" stroke="none"/>
      <text x="259.9637" xml:space="preserve" y="406.5943" clip-path="url(#clipPath2)" font-family="sans-serif" stroke="none">3</text>
      <path fill="none" d="M323.2045 389.3917 L323.2045 405.3545" clip-path="url(#clipPath2)"/>
      <path d="M323.2045 413.3545 L328.2045 401.3545 L323.2045 404.3545 L318.2045 401.3545 Z" clip-path="url(#clipPath2)" stroke="none"/>
      <text x="331.2945" xml:space="preserve" y="405.8197" clip-path="url(#clipPath2)" font-family="sans-serif" stroke="none">4</text>
    </g>
  </g>
</svg>
